# File created by Blade
# Date/Time:  Tue Jan 27 20:12:12 2015
#---------------------------------------------------------
:version 1.10
:name HOM
:units
  mass 1.0
  length 1.000000
  angle deg
:documentation
     Acclaim Skeleton File
:root
   axis xyz
   order TX TY TZ RX RY RZ
   position 0.000000 0.000000 0.000000
   orientation 0 0 0
:bonedata
   begin
      id 1
      name Spine_dum
      direction 0.000000 1.000000 0.000000
      length 6.116652
      axis 0.0 0.0 0.0 xyz
   end
   begin
      id 2
      name LeftUpLeg_dum
      direction 1.000000 0.000000 0.000000
      length 4.711765
      axis 0.0 0.0 0.0 xyz
   end
   begin
      id 3
      name RightUpLeg_dum
      direction -1.000000 0.000000 0.000000
      length 4.711765
      axis 0.0 0.0 0.0 xyz
   end
   begin
      id 4
      name Spine
      direction 0.000000 1.000000 0.000000
      length 0.000000
      axis 0.0 0.0 0.0 xyz
      dof rx ry rz
   end
   begin
      id 5
      name Spine_dum1
      direction 0.000000 1.000000 0.000000
      length 15.225563
      axis 0.0 0.0 0.0 xyz
   end
   begin
      id 6
      name Spine_dum2
      direction 0.000000 1.000000 0.000000
      length 8.977654
      axis 0.0 0.0 0.0 xyz
   end
   begin
      id 7
      name Spine_dum3
      direction 0.000000 1.000000 0.000000
      length 8.977654
      axis 0.0 0.0 0.0 xyz
   end
   begin
      id 8
      name Head
      direction 0.000000 1.000000 0.000000
      length 4.527550
      axis 0.0 0.0 0.0 xyz
      dof rx ry rz
   end
   begin
      id 9
      name LeftShoulder
      direction 1.000000 0.000000 0.000000
      length 7.110130
      axis 0.0 0.0 -90.0 xyz
      dof rx ry rz
   end
   begin
      id 10
      name LeftArm
      direction 1.000000 0.000000 0.000000
      length 10.398341
      axis 0.0 0.0 -90.0 xyz
      dof rx ry rz
   end
   begin
      id 11
      name LeftForeArm
      direction 1.000000 0.000000 0.000000
      length 8.888997
      axis 0.0 0.0 -90.0 xyz
      dof ry rz rx
   end
   begin
      id 12
      name LeftHand
      direction 0.000000 0.000000 0.000000
      length 0.000000
      axis 0.0 0.0 -90.0 xyz
      dof rx ry rz
   end
   begin
      id 13
      name LeftHand_dum1
      direction 0.000000 0.000000 0.000000
      length 0.000000
      axis 0.0 0.0 -90.0 xyz
   end
   begin
      id 14
      name LeftHand_dum2
      direction 1.000000 0.000000 0.000000
      length 3.937000
      axis 0.0 0.0 -90.0 xyz
   end
   begin
      id 15
      name LeftHandThumb1
      direction 0.000000 0.000000 1.000000
      length 3.937000
      axis 0.0 0.0 -90.0 xyz
      dof rx rz ry
   end
   begin
      id 16
      name RightShoulder
      direction -1.000000 0.000000 0.000000
      length 7.110130
      axis 0.0 0.0 90.0 xyz
      dof rx ry rz
   end
   begin
      id 17
      name RightArm
      direction -1.000000 0.000000 0.000000
      length 10.398341
      axis 0.0 0.0 90.0 xyz
      dof rx ry rz
   end
   begin
      id 18
      name RightForeArm
      direction -1.000000 0.000000 0.000000
      length 8.888997
      axis 0.0 0.0 90.0 xyz
      dof ry rz rx
   end
   begin
      id 19
      name RightHand
      direction 0.000000 0.000000 0.000000
      length 0.000000
      axis 0.0 0.0 90.0 xyz
      dof rx ry rz
   end
   begin
      id 20
      name RightHand_dum1
      direction 0.000000 0.000000 0.000000
      length 0.000000
      axis 0.0 0.0 90.0 xyz
   end
   begin
      id 21
      name RightHand_dum2
      direction -1.000000 0.000000 0.000000
      length 3.937000
      axis 0.0 0.0 90.0 xyz
   end
   begin
      id 22
      name RightHandThumb1
      direction 0.000000 0.000000 1.000000
      length 3.937000
      axis 0.0 0.0 90.0 xyz
      dof rx rz ry
   end
   begin
      id 23
      name LeftUpLeg
      direction 0.000000 -1.000000 0.000000
      length 15.510451
      axis 0.0 0.0 0.0 xyz
      dof rx ry rz
   end
   begin
      id 24
      name LeftLeg
      direction 0.000000 -1.000000 0.000000
      length 14.858061
      axis 0.0 0.0 0.0 xyz
      dof rx ry rz
   end
   begin
      id 25
      name LeftFoot
      direction 0.000000 -0.258819 0.965926
      length 5.128852
      axis 15.0 0.0 0.0 xyz
      dof rx ry rz
   end
   begin
      id 26
      name LeftToeBase
      direction 0.000000 0.000000 1.000000
      length 2.952750
      axis 0.0 0.0 0.0 xyz
      dof rx ry rz
   end
   begin
      id 27
      name RightUpLeg
      direction 0.000000 -1.000000 0.000000
      length 15.510451
      axis 0.0 0.0 0.0 xyz
      dof rx ry rz
   end
   begin
      id 28
      name RightLeg
      direction 0.000000 -1.000000 0.000000
      length 14.858061
      axis 0.0 0.0 0.0 xyz
      dof rx ry rz
   end
   begin
      id 29
      name RightFoot
      direction 0.000000 -0.258819 0.965926
      length 5.128852
      axis 15.0 0.0 0.0 xyz
      dof rx ry rz
   end
   begin
      id 30
      name RightToeBase
      direction 0.000000 0.000000 1.000000
      length 2.952750
      axis 0.0 0.0 0.0 xyz
      dof rx ry rz
   end
:hierarchy
   begin
      root Spine_dum LeftUpLeg_dum RightUpLeg_dum
      Spine_dum Spine
      LeftUpLeg_dum LeftUpLeg
      RightUpLeg_dum RightUpLeg
      Spine Spine_dum1 Spine_dum2 Spine_dum3
      Spine_dum1 Head
      Spine_dum2 LeftShoulder
      Spine_dum3 RightShoulder
      LeftShoulder LeftArm
      LeftArm LeftForeArm
      LeftForeArm LeftHand
      LeftHand LeftHand_dum1 LeftHand_dum2
      LeftHand_dum1 LeftHandThumb1
      RightShoulder RightArm
      RightArm RightForeArm
      RightForeArm RightHand
      RightHand RightHand_dum1 RightHand_dum2
      RightHand_dum1 RightHandThumb1
      LeftUpLeg LeftLeg
      LeftLeg LeftFoot
      LeftFoot LeftToeBase
      RightUpLeg RightLeg
      RightLeg RightFoot
      RightFoot RightToeBase
   end

# File created by Blade
# Date/Time:  Tue Jan 27 20:12:02 2015
# Frame Rate: 120.000 fps
#------------------------------------------------------
:FULLY-SPECIFIED
:DEGREES
1233
root 8.377302 32.277789 -3.846327 9.977202 2.563282 -0.097408
Spine -1.347050 9.456782 -3.966606
Head 3.300165 -13.099260 -1.035654
LeftShoulder -16.477648 0.052697 27.765075
LeftArm -20.438047 -42.083913 -64.617286
LeftForeArm -8.385473 -0.000000 94.961435
LeftHand 18.582736 0.000000 12.304763
LeftHandThumb1 -26.253704 0.000000 33.147579
RightShoulder -19.323666 -23.157721 -25.077738
RightArm 11.072256 -34.558539 88.913989
RightForeArm -23.770726 -0.000000 103.738866
RightHand 17.943050 0.000000 -0.415105
RightHandThumb1 -24.326973 -0.000000 -32.862282
LeftUpLeg -2.977571 -2.476597 -7.856720
LeftLeg -5.309721 -0.000000 0.000000
LeftFoot -11.720252 14.203247 -14.703297
LeftToeBase 23.712161 -0.000000 -0.000000
RightUpLeg -2.683207 -16.615039 5.045298
RightLeg 108.368221 -0.000000 -0.000000
RightFoot 22.985283 -15.835435 41.466554
RightToeBase 17.989446 -0.000000 -0.000000
1234
root 8.383437 32.276213 -3.844908 10.069481 2.682905 -0.064472
Spine -1.456893 9.368341 -3.953550
Head 3.292044 -13.063449 -1.127800
LeftShoulder -16.472458 -0.004964 27.707916
LeftArm -20.407547 -42.053897 -64.610140
LeftForeArm -8.277891 0.000000 95.001074
LeftHand 18.444439 -0.000000 12.319289
LeftHandThumb1 -26.253704 0.000000 33.147579
RightShoulder -19.386503 -23.151084 -25.056431
RightArm 11.114246 -34.488668 88.885257
RightForeArm -23.775651 -0.000000 103.732579
RightHand 17.963557 -0.000000 -0.310829
RightHandThumb1 -24.326973 -0.000000 -32.862282
LeftUpLeg -3.059249 -2.449171 -7.886160
LeftLeg -5.325131 -0.000000 0.000000
LeftFoot -11.643292 14.033219 -14.684515
LeftToeBase 23.749389 -0.000000 -0.000000
RightUpLeg -2.344650 -17.154923 4.910951
RightLeg 110.932663 -0.000000 -0.000000
RightFoot 23.332105 -16.148079 41.444154
RightToeBase 19.905024 -0.000000 -0.000000
1235
root 8.392100 32.272756 -3.843369 10.146732 2.805882 -0.001988
Spine -1.535862 9.251808 -3.966369
Head 3.247900 -12.999299 -1.200279
LeftShoulder -16.459891 -0.020154 27.702296
LeftArm -20.364876 -42.099434 -64.677699
LeftForeArm -8.188323 0.000000 94.998920
LeftHand 18.413929 -0.000000 12.254771
LeftHandThumb1 -26.253704 0.000000 33.147579
RightShoulder -19.393264 -23.038417 -25.082537
RightArm 11.022870 -34.415843 88.914513
RightForeArm -23.822207 0.000000 103.750968
RightHand 17.922158 -0.000000 -0.272608
RightHandThumb1 -24.326973 -0.000000 -32.862282
LeftUpLeg -3.123328 -2.454983 -7.949070
LeftLeg -5.341563 -0.000000 0.000000
LeftFoot -11.543117 13.903449 -14.608675
LeftToeBase 23.670493 -0.000000 -0.000000
RightUpLeg -1.944682 -17.775558 4.690788
RightLeg 113.399446 -0.000000 -0.000000
RightFoot 23.828003 -16.625319 41.625551
RightToeBase 20.353932 -0.000000 -0.000000
1236
root 8.398828 32.270796 -3.843530 10.241379 2.908862 0.031992
Spine -1.629721 9.129821 -3.947913
Head 3.196303 -12.912820 -1.278468
LeftShoulder -16.464773 -0.046102 27.683150
LeftArm -20.378369 -42.102765 -64.686653
LeftForeArm -8.121675 0.000000 95.002036
LeftHand 18.429314 -0.000000 12.222888
LeftHandThumb1 -26.253704 0.000000 33.147579
RightShoulder -19.403263 -22.920717 -25.100682
RightArm 10.945485 -34.343143 88.935053
RightForeArm -23.899575 0.000000 103.747862
RightHand 17.885589 0.000000 -0.318428
RightHandThumb1 -24.326973 -0.000000 -32.862282
LeftUpLeg -3.201352 -2.567009 -7.969720
LeftLeg -5.371719 -0.000000 0.000000
LeftFoot -11.475563 13.902470 -14.536332
LeftToeBase 23.620181 -0.000000 -0.000000
RightUpLeg -1.578996 -18.295665 4.481448
RightLeg 115.797368 -0.000000 -0.000000
RightFoot 24.524158 -16.826179 41.602211
RightToeBase 22.005340 -0.000000 -0.000000
1237
root 8.406512 32.268009 -3.844952 10.335353 2.965647 0.063217
Spine -1.711706 9.035259 -3.936176
Head 3.107879 -12.804753 -1.324731
LeftShoulder -16.487278 -0.068924 27.670941
LeftArm -20.404768 -42.078147 -64.681639
LeftForeArm -8.092893 -0.000000 95.011545
LeftHand 18.430851 -0.000000 12.206731
LeftHandThumb1 -26.253704 0.000000 33.147579
RightShoulder -19.523155 -22.760213 -25.103497
RightArm 10.948651 -34.402802 88.856055
RightForeArm -23.881006 -0.000000 103.684041
RightHand 17.856128 0.000000 -0.513786
RightHandThumb1 -24.326973 -0.000000 -32.862282
LeftUpLeg -3.276234 -2.637941 -7.998840
LeftLeg -5.411176 -0.000000 0.000000
LeftFoot -11.426690 13.891109 -14.534049
LeftToeBase 23.641485 -0.000000 -0.000000
RightUpLeg -1.223462 -18.721666 4.261459
RightLeg 118.100955 -0.000000 -0.000000
RightFoot 25.067899 -17.067145 41.959595
RightToeBase 23.208597 -0.000000 -0.000000
